<?xml version="1.0" encoding="iso-8859-1"?>
<!-- Generator: Adobe Illustrator 16.0.0, SVG Export Plug-In . SVG Version: 6.00 Build 0)  -->
<!DOCTYPE svg PUBLIC "-//W3C//DTD SVG 1.1//EN" "http://www.w3.org/Graphics/SVG/1.1/DTD/svg11.dtd">
<svg version="1.1" id="Capa_1" xmlns="http://www.w3.org/2000/svg" xmlns:xlink="http://www.w3.org/1999/xlink" x="0px" y="0px"
	 width="387.36px" height="387.36px" viewBox="0 0 387.36 387.36" style="enable-background:new 0 0 387.36 387.36;"
	 xml:space="preserve">
<g>
	<g>
		<g>
			<path d="M305.96,193.68c12.269-12.141,23.233-24.17,32.628-35.791c0.873,0.107,1.703,0.159,2.514,0.159c12.131,0,22-9.869,22-22
				c0-3.39-0.797-6.75-2.31-9.789c15.994-27.479,18.688-48.68,8.007-63.023c-7.004-9.405-18.667-14.174-34.665-14.174
				c-17.733,0-41.544,6.159-68.947,17.825c-0.971-2.368-1.942-4.635-2.902-6.76C244.777,21.354,220.399,0,193.64,0
				s-51.137,21.354-68.643,60.127c-0.959,2.124-1.933,4.391-2.902,6.759c-5.487-2.335-10.879-4.472-16.067-6.366
				c-2.267-9.969-11.097-17.087-21.428-17.087c-6.082,0-11.854,2.511-16.012,6.929c-5.57-0.863-10.761-1.301-15.441-1.301
				c-15.998,0-27.661,4.769-34.665,14.174C5.163,81.12,12.976,110.468,41.08,148.107c10.912,14.616,24.446,29.941,40.242,45.573
				c-15.795,15.629-29.329,30.957-40.242,45.572c-28.103,37.639-35.917,66.987-22.598,84.872
				c7.003,9.404,18.665,14.173,34.671,14.175c17.733,0,41.54-6.16,68.942-17.824c0.97,2.367,1.943,4.635,2.902,6.759
				c17.506,38.772,41.883,60.127,68.643,60.127c26.761,0,51.138-21.354,68.645-60.127c0.957-2.122,1.932-4.39,2.901-6.761
				c27.403,11.666,51.213,17.826,68.947,17.826c15.998,0,27.661-4.77,34.665-14.175c13.319-17.885,5.505-47.233-22.598-84.873
				C335.288,224.637,321.754,209.311,305.96,193.68z M262.462,232.667c-2.024,20.117-5.592,39.011-10.62,56.263
				c-11.993-6.028-24.419-12.938-37.008-20.582c7.596-5.205,15.14-10.594,22.462-16.047
				C245.862,245.92,254.31,239.33,262.462,232.667z M149.986,252.299c7.329,5.459,14.874,10.851,22.463,16.049
				c-12.594,7.646-25.021,14.558-37.009,20.584c-5.029-17.252-8.595-36.146-10.621-56.266
				C132.974,239.332,141.423,245.922,149.986,252.299z M124.819,154.693c2.025-20.118,5.592-39.012,10.62-56.263
				c11.99,6.028,24.417,12.939,37.009,20.582c-7.595,5.205-15.139,10.595-22.463,16.049
				C141.418,141.439,132.972,148.03,124.819,154.693z M237.296,135.06c-7.316-5.45-14.86-10.84-22.462-16.049
				c12.593-7.644,25.021-14.554,37.008-20.581c5.028,17.251,8.596,36.145,10.62,56.262
				C254.307,148.027,245.859,141.437,237.296,135.06z M193.64,364.359c-16.934,0-34.312-16.98-47.681-46.591
				c-0.986-2.188-1.978-4.506-2.953-6.918c16.335-8.057,33.354-17.655,50.635-28.56c17.279,10.903,34.299,20.503,50.634,28.56
				c-0.976,2.408-1.966,4.729-2.953,6.918C227.952,347.379,210.574,364.359,193.64,364.359z M193.641,254.895
				c-10.062-6.67-20.121-13.745-29.919-21.043c-14.24-10.604-27.951-21.657-40.766-32.864c-0.046-2.496-0.069-4.95-0.069-7.307
				s0.023-4.811,0.069-7.307c12.816-11.209,26.527-22.263,40.766-32.866c9.791-7.292,19.852-14.367,29.918-21.041
				c10.073,6.679,20.134,13.753,29.919,21.041c14.24,10.606,27.95,21.659,40.766,32.866c0.046,2.497,0.068,4.951,0.068,7.308
				s-0.022,4.811-0.068,7.308c-12.814,11.207-26.524,22.261-40.768,32.865C213.771,241.143,203.711,248.219,193.641,254.895z
				 M193.64,23c16.935,0,34.313,16.982,47.682,46.592c0.988,2.191,1.979,4.512,2.954,6.918
				c-16.337,8.057-33.355,17.656-50.636,28.558c-17.278-10.903-34.298-20.502-50.634-28.559c0.975-2.409,1.965-4.729,2.953-6.918
				C159.328,39.982,176.706,23,193.64,23z M350.353,310.387c-2.359,3.168-8.119,4.912-16.22,4.912
				c-15.112,0-36.266-5.703-61.251-16.507c7.92-25.972,12.794-56.062,14.124-87.206c0.763-0.688,1.521-1.375,2.273-2.063
				c15.17,14.969,28.113,29.594,38.49,43.491C353.581,287.58,354.109,305.342,350.353,310.387z M341.101,114.049
				c-12.132,0-22,9.869-22,22c0,2.632,0.464,5.203,1.38,7.658c-8.953,11.057-19.438,22.527-31.199,34.134
				c-0.754-0.689-1.513-1.377-2.273-2.066c-1.33-31.148-6.205-61.237-14.124-87.205c24.985-10.803,46.139-16.507,61.251-16.507
				c8.101,0,13.859,1.744,16.22,4.912c3.2,4.299,2.689,16.562-9.082,37.076C341.214,114.049,341.157,114.049,341.101,114.049z
				 M36.929,76.973c2.359-3.167,8.119-4.912,16.219-4.912c3.223,0,6.838,0.278,10.763,0.827c3.113,8.626,11.441,14.545,20.69,14.545
				c5.186,0,10.151-1.821,14.116-5.151c5.111,1.884,10.373,3.993,15.682,6.287c-7.92,25.97-12.795,56.059-14.125,87.207
				c-0.761,0.688-1.519,1.376-2.273,2.065c-15.171-14.97-28.114-29.595-38.491-43.493C33.7,99.779,33.172,82.018,36.929,76.973z
				 M97.999,209.52c0.755,0.688,1.513,1.378,2.273,2.064c1.33,31.146,6.205,61.236,14.125,87.208
				c-24.982,10.804-46.133,16.507-61.25,16.507c-8.102,0-13.861-1.746-16.22-4.912c-3.757-5.045-3.229-22.806,22.581-57.373
				C69.888,239.114,82.83,224.489,97.999,209.52z"/>
			<path d="M193.64,158.68c-19.299,0-35,15.701-35,35c0,19.297,15.701,35,35,35c19.3,0,35.001-15.701,35.001-35
				C228.641,174.381,212.939,158.68,193.64,158.68z"/>
		</g>
	</g>
</g>
<g>
</g>
<g>
</g>
<g>
</g>
<g>
</g>
<g>
</g>
<g>
</g>
<g>
</g>
<g>
</g>
<g>
</g>
<g>
</g>
<g>
</g>
<g>
</g>
<g>
</g>
<g>
</g>
<g>
</g>
</svg>
